# xmcd CD database file
#
# Track frame offsets:
#	150
#	20157
#	43649
#	90753
#	126362
#	151019
#	177183
#	202002
#	223059
#	277455
#	316807
#
# Disc length: 4772 seconds
#
# Revision: 0
# Processed by: cddbd v1.5.2PL0 Copyright (c) Steve Scherf et al.
# Submitted via: CDex 1.51
#
DISCID=9b12a20b
DTITLE=Charles Mingus - East Coasting
DYEAR=1958
DGENRE=Jazz
TTITLE0=Memories of You
TTITLE1=East Coasting
TTITLE2=West Coast Ghost
TTITLE3=Celia
TTITLE4=Conversation
TTITLE5=Fifty-First Blues
TTITLE6=East Coasting (Alternate Take)
TTITLE7=Memories of You (Alternate Take)
TTITLE8=Revelations
TTITLE9=Woody'n You
TTITLE10=Billie's Bounce
EXTD=YEAR: 1958
EXTT0=
EXTT1=
EXTT2=
EXTT3=
EXTT4=
EXTT5=
EXTT6=
EXTT7=
EXTT8=
EXTT9=
EXTT10=
PLAYORDER=
